<svg width="100" height="80" viewBox="0 0 100 80" xmlns="http://www.w3.org/2000/svg">
  <defs>
    <linearGradient id="logoGradient" x1="0%" y1="0%" x2="100%" y2="100%">
      <stop offset="0%" style="stop-color:#00FF88;stop-opacity:1" />
      <stop offset="100%" style="stop-color:#007BFF;stop-opacity:1" />
    </linearGradient>
  </defs>
  
  <!-- Background circle -->
  <circle cx="50" cy="40" r="35" fill="url(#logoGradient)" opacity="0.1"/>
  
  <!-- Main logo icon - stylized "DS" for DoubleSpeed -->
  <g fill="url(#logoGradient)" stroke="none">
    <!-- D shape -->
    <path d="M20 20 L20 60 L35 60 Q45 60 45 40 Q45 20 35 20 Z M25 25 L33 25 Q40 25 40 40 Q40 55 33 55 L25 55 Z"/>
    
    <!-- S shape -->
    <path d="M55 20 Q50 20 50 25 Q50 30 55 30 L70 30 Q75 30 75 35 Q75 40 70 40 L60 40 Q55 40 55 45 Q55 50 60 50 L75 50 Q80 50 80 55 Q80 60 75 60 L55 60 Q50 60 50 55 Q50 50 55 50 L65 50 Q70 50 70 45 Q70 40 65 40 L55 40 Q50 40 50 35 Q50 30 55 30 L70 30 Q75 30 75 25 Q75 20 70 20 Z"/>
  </g>
  
  <!-- Glow effect -->
  <circle cx="50" cy="40" r="35" fill="none" stroke="url(#logoGradient)" stroke-width="1" opacity="0.3"/>
</svg>